<?xml version="1.0" encoding="UTF-8" standalone="no"?>
<!-- Created with Inkscape (http://www.inkscape.org/) -->

<svg
   xmlns:dc="http://purl.org/dc/elements/1.1/"
   xmlns:cc="http://creativecommons.org/ns#"
   xmlns:rdf="http://www.w3.org/1999/02/22-rdf-syntax-ns#"
   xmlns:svg="http://www.w3.org/2000/svg"
   xmlns="http://www.w3.org/2000/svg"
   xmlns:inkscape="http://www.inkscape.org/namespaces/inkscape"
   version="1.1"
   width="130.77251"
   height="44.455002"
   id="svg2"
   xml:space="preserve"><metadata
     id="metadata8"><rdf:RDF><cc:Work
         rdf:about=""><dc:format>image/svg+xml</dc:format><dc:type
           rdf:resource="http://purl.org/dc/dcmitype/StillImage" /></cc:Work></rdf:RDF></metadata><defs
     id="defs6"><clipPath
       id="clipPath12"><path
         d="m 0,0 841.89,0 0,595.28 L 0,595.28 0,0 z"
         inkscape:connector-curvature="0"
         id="path14" /></clipPath><clipPath
       id="clipPath20"><path
         d="m 0,595.28 841.89,0 L 841.89,0 0,0 0,595.28 z"
         inkscape:connector-curvature="0"
         id="path22" /></clipPath><clipPath
       id="clipPath56"><path
         d="m 503.484,219.409 0,-1.766 39.282,0 c 0.417,0 0.721,0.263 0.916,0.611 l 0,0 c 0.054,0.099 0.398,1.155 0.386,1.155 l 0,0 -40.584,0 z"
         inkscape:connector-curvature="0"
         id="path58" /></clipPath><linearGradient
       x1="0"
       y1="0"
       x2="1"
       y2="0"
       id="linearGradient64"
       gradientUnits="userSpaceOnUse"
       gradientTransform="matrix(40.583984,0,0,-40.583984,503.48437,218.52637)"
       spreadMethod="pad"><stop
         id="stop66"
         style="stop-color:#2facde;stop-opacity:1"
         offset="0" /><stop
         id="stop68"
         style="stop-color:#287f9f;stop-opacity:1"
         offset="1" /></linearGradient><clipPath
       id="clipPath76"><path
         d="m 481.112,217.643 22.372,0 0,1.766 -22.372,0 0,-1.766 z"
         inkscape:connector-curvature="0"
         id="path78" /></clipPath><linearGradient
       x1="0"
       y1="0"
       x2="1"
       y2="0"
       id="linearGradient84"
       gradientUnits="userSpaceOnUse"
       gradientTransform="matrix(22.37207,0,0,-22.37207,481.1123,218.52637)"
       spreadMethod="pad"><stop
         id="stop86"
         style="stop-color:#b3dc23;stop-opacity:1"
         offset="0" /><stop
         id="stop88"
         style="stop-color:#93ba29;stop-opacity:1"
         offset="1" /></linearGradient><clipPath
       id="clipPath96"><path
         d="m 461.339,217.643 19.773,0 0,1.766 -19.773,0 0,-1.766 z"
         inkscape:connector-curvature="0"
         id="path98" /></clipPath><linearGradient
       x1="0"
       y1="0"
       x2="1"
       y2="0"
       id="linearGradient104"
       gradientUnits="userSpaceOnUse"
       gradientTransform="matrix(19.773437,0,0,-19.773437,461.33887,218.52637)"
       spreadMethod="pad"><stop
         id="stop106"
         style="stop-color:#dc3d22;stop-opacity:1"
         offset="0" /><stop
         id="stop108"
         style="stop-color:#c02925;stop-opacity:1"
         offset="1" /></linearGradient><clipPath
       id="clipPath116"><path
         d="m 0,595.28 841.89,0 L 841.89,0 0,0 0,595.28 z"
         inkscape:connector-curvature="0"
         id="path118" /></clipPath></defs><g
     transform="matrix(1.25,0,0,-1.25,-554.7275,312.7825)"
     clip-path="url(#clipPath12)"
     id="g10"><g
       id="g16"><g
         clip-path="url(#clipPath20)"
         id="g18"><g
           transform="translate(454.1094,247.583)"
           id="g24"><path
             d="m 0,0 0,-18.668 c 0,-1.101 -0.157,-1.97 -0.468,-2.584 -0.262,-0.519 -0.823,-0.771 -1.718,-0.771 -0.781,0 -1.511,0.128 -2.168,0.383 l -0.478,0.186 -0.824,-3.268 0.317,-0.166 c 0.212,-0.11 0.479,-0.203 0.812,-0.281 0.297,-0.069 0.609,-0.13 0.936,-0.181 0.316,-0.046 0.636,-0.084 0.95,-0.107 0.321,-0.024 0.586,-0.037 0.799,-0.037 1.958,0 3.451,0.539 4.444,1.599 0.98,1.053 1.478,2.579 1.478,4.534 L 4.08,0 0,0 z"
             inkscape:connector-curvature="0"
             id="path26"
             style="fill:#4f4c4d;fill-opacity:1;fill-rule:nonzero;stroke:none" /></g><g
           transform="translate(475.9639,235.0557)"
           id="g28"><path
             d="m 0,0 c -0.921,0.625 -1.935,1.18 -3.014,1.65 -1.039,0.454 -2.018,0.921 -2.909,1.389 -0.859,0.451 -1.58,0.965 -2.146,1.53 -0.516,0.516 -0.769,1.148 -0.769,1.93 0,0.792 0.337,1.467 1.032,2.064 0.705,0.605 1.809,0.912 3.276,0.912 1.307,0 2.494,-0.118 3.528,-0.347 1.03,-0.23 1.818,-0.471 2.34,-0.718 l 0.454,-0.215 1.203,3.42 -0.366,0.176 c -0.709,0.34 -1.695,0.621 -2.933,0.834 -1.222,0.212 -2.595,0.318 -4.081,0.318 -2.62,0 -4.681,-0.591 -6.129,-1.762 -1.475,-1.194 -2.224,-2.827 -2.224,-4.855 0,-1.427 0.331,-2.627 0.983,-3.564 0.63,-0.91 1.431,-1.684 2.379,-2.305 0.924,-0.602 1.94,-1.123 3.022,-1.547 1.039,-0.408 2.011,-0.849 2.895,-1.314 0.855,-0.449 1.576,-0.969 2.142,-1.543 0.519,-0.53 0.771,-1.201 0.771,-2.055 0,-0.607 -0.13,-1.135 -0.387,-1.57 -0.265,-0.448 -0.625,-0.824 -1.069,-1.117 -0.454,-0.301 -1.011,-0.525 -1.649,-0.663 -0.662,-0.142 -1.381,-0.214 -2.141,-0.214 -1.303,0 -2.49,0.136 -3.529,0.407 -1.043,0.27 -1.836,0.548 -2.356,0.822 l -0.447,0.236 -1.349,-3.419 0.372,-0.186 c 0.689,-0.343 1.62,-0.644 2.845,-0.921 1.207,-0.27 2.745,-0.408 4.572,-0.408 1.386,0 2.644,0.17 3.74,0.505 1.109,0.339 2.071,0.832 2.857,1.465 0.797,0.641 1.411,1.419 1.822,2.309 0.412,0.89 0.619,1.898 0.619,2.996 0,1.358 -0.331,2.518 -0.983,3.447 C 1.741,-1.418 0.942,-0.639 0,0"
             inkscape:connector-curvature="0"
             id="path30"
             style="fill:#4f4c4d;fill-opacity:1;fill-rule:nonzero;stroke:none" /></g><g
           transform="translate(489.1816,225.5928)"
           id="g32"><path
             d="M 0,0 C -0.117,0 -0.34,0.006 -0.669,0.018 L -1.717,0.053 C -2.076,0.064 -2.425,0.075 -2.762,0.087 -2.857,0.09 -2.939,0.094 -3.009,0.098 l 0,18.574 c 0.087,0.009 0.183,0.017 0.285,0.024 0.298,0.023 0.628,0.046 0.986,0.07 0.357,0.021 0.717,0.033 1.072,0.033 l 1.027,0 c 1.576,0 2.894,-0.279 3.916,-0.83 C 5.304,17.418 6.13,16.702 6.736,15.84 7.348,14.971 7.786,13.98 8.037,12.898 8.291,11.793 8.422,10.681 8.422,9.59 8.422,8.338 8.281,7.109 8,5.937 7.728,4.791 7.262,3.762 6.616,2.881 5.979,2.01 5.112,1.307 4.042,0.786 2.967,0.266 1.607,0 0,0 m 9.537,18.707 c -1.004,1.119 -2.291,2.002 -3.828,2.627 -1.527,0.62 -3.352,0.935 -5.42,0.935 -0.508,0 -1.057,-0.007 -1.65,-0.018 l -1.803,-0.035 c -0.627,-0.013 -1.23,-0.036 -1.787,-0.071 -0.573,-0.034 -1.103,-0.088 -1.572,-0.159 l -0.385,-0.058 0,-25.039 0.367,-0.072 c 0.263,-0.049 0.674,-0.087 1.258,-0.112 0.551,-0.022 1.15,-0.052 1.797,-0.086 0.638,-0.033 1.281,-0.057 1.91,-0.07 0.616,-0.011 1.118,-0.018 1.504,-0.018 2.246,0 4.191,0.369 5.781,1.098 1.595,0.73 2.911,1.716 3.912,2.929 0.996,1.207 1.735,2.611 2.195,4.178 0.455,1.546 0.686,3.179 0.686,4.854 0,1.839 -0.243,3.55 -0.723,5.088 -0.487,1.554 -1.241,2.911 -2.242,4.029"
             inkscape:connector-curvature="0"
             id="path34"
             style="fill:#4f4c4d;fill-opacity:1;fill-rule:nonzero;stroke:none" /></g><g
           transform="translate(521.5273,226.5361)"
           id="g36"><path
             d="m 0,0 c -0.514,-0.301 -1.161,-0.553 -1.922,-0.748 -0.766,-0.199 -1.682,-0.299 -2.72,-0.299 -1.137,0 -2.202,0.199 -3.165,0.591 -0.953,0.388 -1.797,0.977 -2.506,1.755 -0.712,0.781 -1.281,1.777 -1.693,2.96 -0.413,1.194 -0.623,2.612 -0.623,4.215 0,1.787 0.221,3.307 0.658,4.522 0.432,1.201 1.011,2.184 1.721,2.92 0.707,0.731 1.518,1.266 2.408,1.586 0.907,0.326 1.838,0.492 2.768,0.492 2.062,0 3.658,-0.265 4.748,-0.787 l 0.484,-0.232 0.98,3.476 -0.383,0.149 c -0.675,0.264 -1.495,0.477 -2.437,0.632 -0.935,0.153 -2.149,0.231 -3.609,0.231 -1.393,0 -2.778,-0.241 -4.119,-0.719 -1.354,-0.48 -2.592,-1.254 -3.679,-2.299 -1.087,-1.043 -1.974,-2.402 -2.632,-4.037 -0.656,-1.627 -0.988,-3.624 -0.988,-5.934 0,-2.214 0.299,-4.16 0.893,-5.783 0.595,-1.635 1.419,-3 2.445,-4.056 1.027,-1.06 2.249,-1.86 3.629,-2.377 1.366,-0.514 2.852,-0.774 4.416,-0.774 1.27,0 2.488,0.108 3.619,0.32 1.168,0.219 2.153,0.62 2.926,1.188 L 1.481,-2.813 0.488,0.285 0,0 z"
             inkscape:connector-curvature="0"
             id="path38"
             style="fill:#4f4c4d;fill-opacity:1;fill-rule:nonzero;stroke:none" /></g><g
           transform="translate(526.1348,224.9658)"
           id="g40"><path
             d="m 0,0 c -0.293,0 -0.535,-0.096 -0.718,-0.285 -0.178,-0.188 -0.268,-0.438 -0.268,-0.744 0,-0.297 0.09,-0.543 0.265,-0.733 0.184,-0.197 0.426,-0.297 0.721,-0.297 0.303,0 0.549,0.098 0.736,0.293 0.184,0.192 0.277,0.44 0.277,0.737 0,0.307 -0.095,0.559 -0.281,0.747 C 0.547,-0.094 0.299,0 0,0"
             inkscape:connector-curvature="0"
             id="path42"
             style="fill:#393536;fill-opacity:1;fill-rule:nonzero;stroke:none" /></g><g
           transform="translate(532.4414,224.7588)"
           id="g44"><path
             d="m 0,0 c -0.203,-0.085 -0.388,-0.154 -0.55,-0.206 -0.143,-0.045 -0.328,-0.069 -0.546,-0.069 -0.253,0 -0.341,0.097 -0.39,0.183 -0.071,0.117 -0.151,0.377 -0.151,0.958 l 0,3.859 1.951,0 0,1.6 -1.951,0 0,1.918 -1.703,-0.509 0,-1.409 -1.117,0 0,-1.6 1.117,0 0,-4.082 c 0,-0.873 0.135,-1.489 0.41,-1.883 0.292,-0.422 0.784,-0.635 1.46,-0.635 0.374,0 0.732,0.043 1.06,0.127 0.324,0.086 0.627,0.197 0.901,0.335 L 0.697,-1.311 0.289,0.125 0,0 z"
             inkscape:connector-curvature="0"
             id="path46"
             style="fill:#393536;fill-opacity:1;fill-rule:nonzero;stroke:none" /></g><g
           transform="translate(542.4375,231.084)"
           id="g48"><path
             d="M 0,0 -1.289,-4.558 -1.328,-4.786 -1.389,-4.543 -3.038,0 -4.229,0 -5.775,-4.532 -5.8,-4.639 -7.242,0 l -1.779,0 2.57,-8.187 0.935,0 1.81,5.131 0.02,0.092 1.897,-5.223 0.937,0 L 1.631,0 0,0 z"
             inkscape:connector-curvature="0"
             id="path50"
             style="fill:#393536;fill-opacity:1;fill-rule:nonzero;stroke:none" /></g></g></g><g
       id="g52"><g
         clip-path="url(#clipPath56)"
         id="g54"><g
           id="g60"><g
             id="g62"><path
               d="m 503.484,219.409 0,-1.766 39.282,0 c 0.417,0 0.721,0.263 0.916,0.611 l 0,0 c 0.054,0.099 0.398,1.155 0.386,1.155 l 0,0 -40.584,0 z"
               inkscape:connector-curvature="0"
               id="path70"
               style="fill:url(#linearGradient64);stroke:none" /></g></g></g></g><g
       id="g72"><g
         clip-path="url(#clipPath76)"
         id="g74"><g
           id="g80"><g
             id="g82"><path
               d="m 481.112,217.643 22.372,0 0,1.766 -22.372,0 0,-1.766 z"
               inkscape:connector-curvature="0"
               id="path90"
               style="fill:url(#linearGradient84);stroke:none" /></g></g></g></g><g
       id="g92"><g
         clip-path="url(#clipPath96)"
         id="g94"><g
           id="g100"><g
             id="g102"><path
               d="m 461.339,217.643 19.773,0 0,1.766 -19.773,0 0,-1.766 z"
               inkscape:connector-curvature="0"
               id="path110"
               style="fill:url(#linearGradient104);stroke:none" /></g></g></g></g><g
       id="g112"><g
         clip-path="url(#clipPath116)"
         id="g114"><g
           transform="translate(461.3389,219.4092)"
           id="g120"><path
             d="m 0,0 -11.57,0 c -0.419,0 -0.722,-0.262 -0.917,-0.611 -0.055,-0.097 -0.399,-1.155 -0.387,-1.155 L 0,-1.766 0,0 z"
             inkscape:connector-curvature="0"
             id="path122"
             style="fill:#4f4c4d;fill-opacity:1;fill-rule:nonzero;stroke:none" /></g></g></g></g></svg>