<?xml version="1.0" encoding="UTF-8" standalone="no"?>
<!-- Created with Inkscape (http://www.inkscape.org/) -->

<svg
   xmlns:dc="http://purl.org/dc/elements/1.1/"
   xmlns:cc="http://creativecommons.org/ns#"
   xmlns:rdf="http://www.w3.org/1999/02/22-rdf-syntax-ns#"
   xmlns:svg="http://www.w3.org/2000/svg"
   xmlns="http://www.w3.org/2000/svg"
   xmlns:inkscape="http://www.inkscape.org/namespaces/inkscape"
   version="1.1"
   width="415.58875"
   height="415.58875"
   id="svg2"
   xml:space="preserve"><metadata
     id="metadata8"><rdf:RDF><cc:Work
         rdf:about=""><dc:format>image/svg+xml</dc:format><dc:type
           rdf:resource="http://purl.org/dc/dcmitype/StillImage" /></cc:Work></rdf:RDF></metadata><defs
     id="defs6"><clipPath
       id="clipPath16"><path
         d="M 163.203,53.87 C 153.869,36.349 142.23,18.407 128.248,0 l 0,0 204.223,119.895 c -5.614,14.692 -12.06,28.838 -19.217,42.323 l 0,0 -101.576,30.89 C 223.438,147.009 189.866,103.806 163.203,53.87"
         inkscape:connector-curvature="0"
         id="path18" /></clipPath><linearGradient
       x1="0"
       y1="0"
       x2="1"
       y2="0"
       id="linearGradient24"
       gradientUnits="userSpaceOnUse"
       gradientTransform="matrix(305.6192,-122.40171,-122.40171,-305.6192,-20.510254,177.73535)"
       spreadMethod="pad"><stop
         id="stop26"
         style="stop-color:#00acde;stop-opacity:1"
         offset="0" /><stop
         id="stop28"
         style="stop-color:#0687a5;stop-opacity:1"
         offset="1" /></linearGradient><clipPath
       id="clipPath36"><path
         d="M 13.111,210.297 27.77,178.165 c 19.374,6.862 39.132,13.519 53.874,21.685 l 0,0 c 7.079,3.944 13.288,8.108 17.874,12.595 l 0,0 c 0.889,0.867 10.065,10.818 8.766,11.218 l 0,0 -37.374,11.201 C 61.731,224.18 39.643,215.951 13.111,210.297"
         inkscape:connector-curvature="0"
         id="path38" /></clipPath><linearGradient
       x1="0"
       y1="0"
       x2="1"
       y2="0"
       id="linearGradient44"
       gradientUnits="userSpaceOnUse"
       gradientTransform="matrix(314.22626,-125.84887,-125.84887,-314.22626,-10.928711,232.53711)"
       spreadMethod="pad"><stop
         id="stop46"
         style="stop-color:#dd573a;stop-opacity:1"
         offset="0" /><stop
         id="stop48"
         style="stop-color:#c1413b;stop-opacity:1"
         offset="1" /></linearGradient><clipPath
       id="clipPath56"><path
         d="m 0,332.471 332.471,0 L 332.471,0 0,0 0,332.471 z"
         inkscape:connector-curvature="0"
         id="path58" /></clipPath><clipPath
       id="clipPath68"><path
         d="M 40.287,152.932 56.748,85.015 c 7.224,2.435 14.426,4.894 21.467,7.403 l 0,0 c 96.131,33.94 119.818,58.815 107.18,108.122 l 0,0 -57.565,17.26 C 116.303,194.906 82.793,172.577 40.287,152.932"
         inkscape:connector-curvature="0"
         id="path70" /></clipPath><linearGradient
       x1="0"
       y1="0"
       x2="1"
       y2="0"
       id="linearGradient76"
       gradientUnits="userSpaceOnUse"
       gradientTransform="matrix(314.68124,-126.03109,-126.03109,-314.68124,-22.949219,200.45801)"
       spreadMethod="pad"><stop
         id="stop78"
         style="stop-color:#c0d848;stop-opacity:1"
         offset="0" /><stop
         id="stop80"
         style="stop-color:#a1b74b;stop-opacity:1"
         offset="1" /></linearGradient><clipPath
       id="clipPath88"><path
         d="m 0,332.471 332.471,0 L 332.471,0 0,0 0,332.471 z"
         inkscape:connector-curvature="0"
         id="path90" /></clipPath></defs><g
     transform="matrix(1.25,0,0,-1.25,0,415.58875)"
     id="g10"><g
       id="g12"><g
         clip-path="url(#clipPath16)"
         id="g14"><g
           id="g20"><g
             id="g22"><path
               d="M 163.203,53.87 C 153.869,36.349 142.23,18.407 128.248,0 l 0,0 204.223,119.895 c -5.614,14.692 -12.06,28.838 -19.217,42.323 l 0,0 -101.576,30.89 C 223.438,147.009 189.866,103.806 163.203,53.87"
               inkscape:connector-curvature="0"
               id="path30"
               style="fill:url(#linearGradient24);stroke:none" /></g></g></g></g><g
       id="g32"><g
         clip-path="url(#clipPath36)"
         id="g34"><g
           id="g40"><g
             id="g42"><path
               d="M 13.111,210.297 27.77,178.165 c 19.374,6.862 39.132,13.519 53.874,21.685 l 0,0 c 7.079,3.944 13.288,8.108 17.874,12.595 l 0,0 c 0.889,0.867 10.065,10.818 8.766,11.218 l 0,0 -37.374,11.201 C 61.731,224.18 39.643,215.951 13.111,210.297"
               inkscape:connector-curvature="0"
               id="path50"
               style="fill:url(#linearGradient44);stroke:none" /></g></g></g></g><g
       id="g52"><g
         clip-path="url(#clipPath56)"
         id="g54"><g
           transform="translate(0,241.7778)"
           id="g60"><path
             d="m 0,0 10.085,-22.06 c 19.237,5.017 35.526,11.472 47.832,19.045 L 27.445,6.106 C 18.271,3.687 9.142,1.652 0,0"
             inkscape:connector-curvature="0"
             id="path62"
             style="fill:#606163;fill-opacity:1;fill-rule:nonzero;stroke:none" /></g></g></g><g
       id="g64"><g
         clip-path="url(#clipPath68)"
         id="g66"><g
           id="g72"><g
             id="g74"><path
               d="M 40.287,152.932 56.748,85.015 c 7.224,2.435 14.426,4.894 21.467,7.403 l 0,0 c 96.131,33.94 119.818,58.815 107.18,108.122 l 0,0 -57.565,17.26 C 116.303,194.906 82.793,172.577 40.287,152.932"
               inkscape:connector-curvature="0"
               id="path82"
               style="fill:url(#linearGradient76);stroke:none" /></g></g></g></g><g
       id="g84"><g
         clip-path="url(#clipPath88)"
         id="g86"><g
           transform="translate(47.1069,332.4707)"
           id="g92"><path
             d="m 0,0 0.729,-59.71 c 0.038,-3.336 -0.309,-5.834 -1.023,-7.415 -0.189,-0.414 -0.439,-0.792 -1.403,-0.792 -0.448,0 -0.97,0.092 -1.574,0.254 -1.896,0.521 -3.657,1.388 -5.254,2.571 l -2.614,1.95 -2.37,-11.558 0.917,-0.839 c 0.558,-0.519 1.281,-1.022 2.174,-1.531 0.789,-0.445 1.607,-0.861 2.435,-1.244 0.828,-0.396 1.66,-0.735 2.48,-1.043 0.85,-0.317 1.55,-0.544 2.118,-0.701 1.857,-0.521 3.588,-0.793 5.142,-0.793 3.046,0 5.556,0.997 7.444,2.942 2.761,2.862 4.076,7.413 3.989,13.89 L 12.449,-2.695 0,0 z"
             inkscape:connector-curvature="0"
             id="path94"
             style="fill:#666769;fill-opacity:1;fill-rule:nonzero;stroke:none" /></g><g
           transform="translate(110.7578,277.5596)"
           id="g96"><path
             d="m 0,0 c -2.786,2.719 -5.85,5.292 -9.113,7.652 -3.095,2.228 -5.991,4.444 -8.62,6.585 -2.511,2.046 -4.627,4.204 -6.277,6.412 -1.493,1.973 -2.23,4.114 -2.257,6.553 -0.03,2.264 0.753,3.904 2.47,5.176 1.762,1.291 4.749,1.502 8.75,0.609 3.829,-0.852 7.326,-1.997 10.404,-3.433 3.079,-1.437 5.438,-2.75 7.023,-3.905 l 2.279,-1.67 4.075,12.109 -1.289,0.935 c -2.191,1.62 -5.221,3.21 -9.001,4.733 -3.71,1.493 -7.843,2.747 -12.298,3.713 -7.942,1.715 -14.16,1.041 -18.542,-1.987 -4.487,-3.094 -6.717,-8.116 -6.64,-14.91 0.053,-4.621 1.059,-8.734 2.971,-12.224 1.86,-3.355 4.198,-6.419 6.96,-9.081 2.715,-2.61 5.706,-5.037 8.888,-7.208 3.084,-2.094 5.964,-4.239 8.577,-6.398 2.555,-2.113 4.718,-4.351 6.439,-6.673 1.565,-2.102 2.35,-4.466 2.376,-7.199 0.016,-1.835 -0.302,-3.306 -0.951,-4.357 -0.662,-1.072 -1.538,-1.845 -2.659,-2.354 -1.201,-0.552 -2.65,-0.779 -4.431,-0.724 -1.894,0.066 -3.955,0.405 -6.131,1.004 -3.756,1.019 -7.169,2.399 -10.156,4.069 -2.999,1.674 -4.519,3.025 -6.003,4.292 l -2.224,1.907 -4.387,-11.664 1.202,-0.994 c 1.968,-1.64 3.993,-3.263 7.483,-5.1 3.527,-1.873 8.04,-3.586 13.426,-5.091 3.599,-1.011 6.936,-1.522 9.923,-1.522 0.477,0 0.947,0.008 1.402,0.04 3.48,0.193 6.52,1.059 9.032,2.574 2.591,1.57 4.566,3.788 5.881,6.603 1.291,2.715 1.916,6.016 1.867,9.775 -0.053,4.559 -1.12,8.701 -3.17,12.315 C 5.327,-5.992 2.874,-2.823 0,0"
             inkscape:connector-curvature="0"
             id="path98"
             style="fill:#666769;fill-opacity:1;fill-rule:nonzero;stroke:none" /></g><g
           transform="translate(178.0088,259.3916)"
           id="g100"><path
             d="m 0,0 c 0.039,-4.282 -0.373,-8.366 -1.25,-12.157 -0.838,-3.586 -2.272,-6.599 -4.306,-8.945 -1.96,-2.291 -4.557,-3.799 -7.912,-4.588 -3.36,-0.786 -7.693,-0.479 -12.798,0.919 -0.384,0.108 -1.092,0.315 -2.137,0.644 l -6.711,2.073 c -0.27,0.075 -0.503,0.151 -0.708,0.221 l -0.747,61.43 c 0.903,-0.124 1.894,-0.276 2.955,-0.445 1.114,-0.162 2.25,-0.383 3.409,-0.643 l 3.322,-0.737 c 5.077,-1.136 9.346,-3.035 12.701,-5.653 3.435,-2.679 6.218,-5.786 8.273,-9.227 2.084,-3.48 3.596,-7.238 4.476,-11.171 C -0.54,7.691 -0.053,3.752 0,0 m 4.481,31.731 c -3.43,4.645 -7.784,8.667 -12.931,11.957 -5.113,3.236 -11.122,5.625 -17.914,7.088 -1.627,0.363 -3.413,0.714 -5.316,1.094 l -5.755,1.126 c -1.981,0.394 -3.874,0.724 -5.682,0.99 -1.855,0.288 -3.539,0.465 -5,0.552 l -2.24,0.116 1.039,-84.938 1.191,-0.574 c 0.85,-0.4 2.153,-0.893 4.003,-1.492 1.737,-0.56 3.627,-1.193 5.682,-1.887 2.09,-0.696 4.13,-1.346 6.121,-1.949 1.986,-0.598 3.599,-1.069 4.849,-1.418 4.897,-1.37 9.41,-2.07 13.404,-2.07 2.035,0 3.993,0.185 5.805,0.536 5.483,1.102 10.039,3.395 13.507,6.845 3.474,3.433 6.006,7.82 7.577,13.036 1.51,5.105 2.236,10.698 2.163,16.637 -0.075,6.492 -0.99,12.734 -2.705,18.525 -1.737,5.828 -4.35,11.151 -7.798,15.826"
             inkscape:connector-curvature="0"
             id="path102"
             style="fill:#666769;fill-opacity:1;fill-rule:nonzero;stroke:none" /></g><g
           transform="translate(267.8965,207.4268)"
           id="g104"><path
             d="m 0,0 -1.94,-0.58 c -1.681,-0.503 -3.785,-0.751 -6.246,-0.759 l -0.824,0.016 c -2.857,0.059 -6.27,0.627 -10.114,1.69 -4.214,1.155 -8.153,2.947 -11.737,5.35 -3.527,2.367 -6.639,5.348 -9.253,8.857 -2.608,3.507 -4.7,7.622 -6.212,12.24 -1.532,4.625 -2.331,9.838 -2.408,15.508 -0.076,6.279 0.632,11.414 2.11,15.303 1.435,3.774 3.36,6.674 5.747,8.611 2.425,1.979 5.129,3.144 8.263,3.558 3.23,0.436 6.603,0.282 10.016,-0.481 7.711,-1.715 13.74,-4.028 17.898,-6.891 l 2.336,-1.602 3.95,13.284 -1.457,0.867 c -2.568,1.526 -5.685,2.98 -9.253,4.328 -3.543,1.331 -8.076,2.593 -13.522,3.762 -5.147,1.116 -10.285,1.339 -15.228,0.669 -5,-0.681 -9.533,-2.532 -13.49,-5.488 -3.978,-2.963 -7.143,-7.21 -9.459,-12.649 -2.295,-5.33 -3.393,-12.244 -3.285,-20.542 0.097,-7.883 1.23,-15.097 3.393,-21.418 2.171,-6.368 5.136,-11.999 8.811,-16.723 3.695,-4.781 8.1,-8.829 13.062,-12.046 5,-3.239 10.448,-5.696 16.212,-7.319 4.72,-1.332 9.292,-2.218 13.561,-2.632 1.122,-0.106 2.202,-0.164 3.249,-0.164 3.115,0 5.858,0.511 8.137,1.513 l 1.769,0.78 L 0,0 z"
             inkscape:connector-curvature="0"
             id="path106"
             style="fill:#666769;fill-opacity:1;fill-rule:nonzero;stroke:none" /></g><g
           transform="translate(276.9771,195.6938)"
           id="g108"><path
             d="M 0,0 C -0.026,1.102 0.25,1.889 0.836,2.352 1.422,2.816 2.214,2.898 3.204,2.595 4.253,2.281 5.091,1.703 5.723,0.875 6.341,0.041 6.678,-0.934 6.71,-2.038 6.737,-3.149 6.455,-3.937 5.867,-4.416 5.276,-4.891 4.456,-4.97 3.401,-4.647 2.411,-4.345 1.601,-3.768 0.98,-2.922 0.357,-2.074 0.033,-1.106 0,0"
             inkscape:connector-curvature="0"
             id="path110"
             style="fill:#4f574b;fill-opacity:1;fill-rule:nonzero;stroke:none" /></g><g
           transform="translate(285.6948,213.5005)"
           id="g112"><path
             d="m 0,0 2.883,-0.844 -0.117,4.48 5.408,0.195 0.17,-6.264 5.155,-1.498 0.146,-5.28 -5.155,1.524 0.252,-9.172 c 0.049,-1.658 0.227,-2.891 0.535,-3.695 0.317,-0.804 0.885,-1.336 1.705,-1.579 0.566,-0.173 1.041,-0.26 1.453,-0.26 0.4,0.013 0.855,0.057 1.356,0.163 l 1.118,-5.086 c -0.761,-0.19 -1.638,-0.266 -2.646,-0.239 -1.013,0.024 -2.03,0.19 -3.075,0.51 -1.932,0.594 -3.376,1.596 -4.312,2.997 -0.941,1.416 -1.443,3.392 -1.516,5.965 L 3.029,-6.08 0.146,-5.233 0,0 z"
             inkscape:connector-curvature="0"
             id="path114"
             style="fill:#4f574b;fill-opacity:1;fill-rule:nonzero;stroke:none" /></g><g
           transform="translate(318.5117,203.9404)"
           id="g116"><path
             d="m 0,0 4.304,-13.606 0.905,-4.278 0.166,-0.048 0.5,3.912 2.471,11.591 5.24,-1.524 -6.101,-22.63 -4.198,1.289 -4.766,14.917 -0.65,3.216 -0.209,0.059 -0.438,-2.942 -3.775,-12.239 -4.253,1.301 -7.532,26.321 6.006,-1.743 3.464,-13.024 0.635,-4.446 0.213,-0.073 0.607,4.132 L -4.164,1.216 0,0 z"
             inkscape:connector-curvature="0"
             id="path118"
             style="fill:#4f574b;fill-opacity:1;fill-rule:nonzero;stroke:none" /></g></g></g></g></svg>